<svg enable-background="new 0 0 450 107" viewBox="0 0 450 107" xmlns="http://www.w3.org/2000/svg"><path d="m126.4 39.3c-1.2 1.2-2.7 3.4-2.7 2.5 0-1 1.2-3.4-1.7-4.1-2.1-.5-4.5 1.2-6.9 3-.4.3-2.2 1.5-2.5 2s-.9 1.4-.9 2c0 1.3.7 2.9 3.2 1.5 3.2-1.8 4.8-5.1 5.8-4.3s-.5 3.3 2.5 3.2c1.1 0 2.5 0 3.8-2.3s4.5-6.3 4.2-1.3c1.3-1.4 10.6-8.8 12.2-7.3 2 2-6.7 7.5-9.8 9.3-.2.1-.1.5.1.5 3.4-.3 8.9-2.2 11-4.4 2.4-2.4 3.6-3.8 3.1-5.9s-4-4.8-7.8-2.2c-3.3 2.2-4.4 3.5-5.8 5.2-.8 1-1.7 2.5-2.3 3.5.7-5.1-4.3-2.2-5.5-.9zm136.2-14.3c-8.6-3.6-49-1.2-60-1.5 1.5 0 13.8-4.8 18.3-6.2 3.1-1 11.3-4.2 15.8-7.3 4-2.7 3.5-10.1-9.1-10-5.8 0-3.8-.2-36 2.6-5.7.5-10.4 1-14.3 1.6 0-.2 0-.4 0-.5-.1-1.6-2.4-1.8-2.7-.2 0 .2-.1.6-.1 1.1-15.3 2.4-15.7 4.9-15.9 7.6-.2 3.5 3.2 9.5 7.8 14.5 1-3.5.4-5.7-1.9-9.5s-2.6-5.3 1.1-6.5c1.1-.4 4.2-.9 8.5-1.4-.6 6.9-2.4 22.6-4.3 38.1-33.5 4.7-85.1 11.8-93.6 11.1-12.2-1.1.1-3.8 10.8-8.8s40-22 45-33.7-10.7-15.3-31.3-15.7c-20.8-.3-76.8 2.7-90.8 12.4s-13.3 20.7 3 35.7c13 12 33.3 23.7 45.6 34.4.3 2.3.8 4.1 1.4 5.3 4.7 9.7 9.7 15.7 14.7 14.3 4.5-1.2-1.1-9.7-12.3-21.3-.3-2-.5-4.1-.5-6.3.1-19.4 1.8-48.1 2.1-51.4s-3.3-3.3-4 .7c-.5 3.1-3.1 34.5-1.9 52.7 0 0 0 0-.1-.1-17.7-17.4-56.9-37.8-51.7-53.4 4.3-12.8 46-17 58.7-17.7s56.7-4 61.7 4c2.8 4.5-3.6 11.3-11.4 17.1-6 4.5-23 15.1-43.8 24.2-8.2 3.6-11.2 11.1-1.7 12.7 6.4 1.1 32.6-.3 59.2-5 13-2.3 27.8-4.3 40.3-6-2.1 17.7-4 33.8-4.1 34.7 4.3-4.7 4.3-12 5.8-15.7.5-1.3 2-9.1 3.3-19.7 10.7-1.5 18.8-2.7 21-3.6 4.1-1.7 2.9.5 1 2.2-.4.3-.1 1 .4.9 5.3-1.1 9.4-8.3 1.6-7.7-2.3.2-11.2 1.4-23.3 3.1.3-2.7.6-5.5.9-8.4 1-10.1 1.7-21.1 1.6-29.5 16.4-2 44.7-4.5 54.5-3.9 1.2.1 1.5 1.7.4 2.1-8.8 4.1-27.5 11.3-39.2 13.9-3.7.8-8.4 5.4 1.2 7.3 3.3.7 17.7.4 24.9.3 28-.5 35.8-.8 43.1 1.8 7.2 2.6 8 11.1-3.2 22.2s-62.8 29.9-83.8 35.9-66.5 17.2-77 18.2c10.5 1.2 37.8-3.5 51-6.8s29.8-8 52.8-15.5 32.8-12 39.8-15.5 25.7-9.6 29.7-23.1-.1-17-9-20.8zm-196.4 65.7c6.8 9.3 1.3 6.9-2.2-2.7.9.9 1.6 1.8 2.2 2.7zm276.6-34.1c-30.2 1.7-47.3 6.1-56.9 6-3.4 0-1.9-1.2-2-2.9-.2-2.2-3.2-3.2-5.1.5-2.4 4.7-7.5 1.5-9.1-1.2.2 3.5.6 6.2 4.6 6.9 4 .8 6.9-4.3 7.2-1.3.3 2.9 3.1 2.1 8.1 1.6 2.3-.2 26.2-3.2 54-5 31.5-2.1 68.2-3 84.2-2.3-22.4-3.6-56-3.9-85-2.3z"/></svg>