<svg width="43" height="40" viewBox="0 0 43 40" fill="none" xmlns="http://www.w3.org/2000/svg">
<path d="M14.1522 2.62473e-09H26.7142L13.6741 38.6374C13.5401 39.0345 13.2849 39.3796 12.9444 39.6241C12.6039 39.8685 12.1953 40 11.7762 40H2.00008C1.68254 40 1.36956 39.9244 1.08703 39.7795C0.804501 39.6345 0.560548 39.4244 0.375354 39.1664C0.19016 38.9085 0.0690476 38.6102 0.0220379 38.2961C-0.0249718 37.9821 0.00347233 37.6614 0.105017 37.3605L12.2543 1.36255C12.3883 0.965414 12.6435 0.620322 12.984 0.375884C13.3245 0.131445 13.7331 -2.14487e-05 14.1522 2.62473e-09Z" fill="url(#paint0_linear_76_365)"/>
<path d="M32.406 25.9154H12.4859C12.3007 25.9153 12.1198 25.971 11.9668 26.0752C11.8137 26.1794 11.6956 26.3272 11.6277 26.4995C11.5598 26.6717 11.5454 26.8604 11.5862 27.041C11.627 27.2216 11.7213 27.3857 11.8567 27.512L24.6571 39.4587C25.0296 39.8065 25.5203 39.9999 26.03 39.9999H37.309L32.406 25.9154Z" fill="#0078D4"/>
<path d="M14.1517 1.38042e-05C13.728 -0.00156509 13.3149 0.132337 12.9728 0.382168C12.6306 0.631998 12.3773 0.984673 12.2497 1.3887L0.119545 37.3279C0.0112081 37.6298 -0.0228064 37.9534 0.0203792 38.2713C0.0635648 38.5892 0.18268 38.892 0.367648 39.1542C0.552616 39.4163 0.797995 39.63 1.08303 39.7772C1.36806 39.9244 1.68436 40.0009 2.00517 40H12.0337C12.4073 39.9333 12.7565 39.7685 13.0455 39.5226C13.3346 39.2767 13.5533 38.9585 13.6791 38.6004L16.0975 31.472L24.7383 39.5308C25.1003 39.8304 25.5545 39.9961 26.0244 40H37.2618L32.333 25.9154L17.9654 25.9187L26.7594 1.38042e-05H14.1517Z" fill="url(#paint1_linear_76_365)"/>
<path d="M30.1969 1.36038C30.0631 0.963889 29.8083 0.619364 29.4683 0.37532C29.1284 0.131275 28.7205 6.84815e-06 28.302 0H14.302C14.7205 -3.86149e-06 15.1284 0.131257 15.4684 0.375301C15.8084 0.619344 16.0632 0.963875 16.1971 1.36038L28.347 37.3603C28.4486 37.6612 28.477 37.9819 28.43 38.296C28.383 38.61 28.2619 38.9084 28.0767 39.1663C27.8915 39.4243 27.6475 39.6344 27.365 39.7794C27.0825 39.9244 26.7695 40 26.452 40H40.452C40.7695 39.9999 41.0825 39.9243 41.365 39.7793C41.6475 39.6343 41.8914 39.4242 42.0766 39.1662C42.2618 38.9083 42.3828 38.61 42.4298 38.2959C42.4768 37.9819 42.4484 37.6612 42.3469 37.3603L30.1969 1.36038Z" fill="url(#paint2_linear_76_365)"/>
<defs>
<linearGradient id="paint0_linear_76_365" x1="18.7308" y1="2.96406" x2="5.68496" y2="41.5048" gradientUnits="userSpaceOnUse">
<stop stop-color="#114A8B"/>
<stop offset="1" stop-color="#0669BC"/>
</linearGradient>
<linearGradient id="paint1_linear_76_365" x1="22.8056" y1="20.9249" x2="19.7877" y2="21.9453" gradientUnits="userSpaceOnUse">
<stop stop-opacity="0.3"/>
<stop offset="0.071" stop-opacity="0.2"/>
<stop offset="0.321" stop-opacity="0.1"/>
<stop offset="0.623" stop-opacity="0.05"/>
<stop offset="1" stop-opacity="0"/>
</linearGradient>
<linearGradient id="paint2_linear_76_365" x1="21.1463" y1="1.83972" x2="35.4666" y2="39.9924" gradientUnits="userSpaceOnUse">
<stop stop-color="#3CCBF4"/>
<stop offset="1" stop-color="#2892DF"/>
</linearGradient>
</defs>
</svg>
