<svg width="40" height="40" viewBox="0 0 40 40" fill="none" xmlns="http://www.w3.org/2000/svg">
<path d="M7.08333 0H32.9167C36.8333 0 40 3.24786 40 7.26496V32.735C40 36.7521 36.8333 40 32.9167 40H7.08333C3.16667 40 0 36.7521 0 32.735V7.26496C0 3.24786 3.16667 0 7.08333 0Z" fill="#49021F"/>
<path d="M14.5336 10.4615V28.0684C14.5336 28.2564 14.4502 28.3419 14.3002 28.3419H11.0336C10.8836 28.3419 10.8169 28.2564 10.8169 28.0684V10.4615C10.8169 10.3077 10.9002 10.2393 11.0502 10.2393H14.3002C14.4002 10.2222 14.5002 10.2906 14.5169 10.4103C14.5336 10.4274 14.5336 10.4445 14.5336 10.4615Z" fill="#FF3366"/>
<path d="M24.167 28.547C22.9336 28.5641 21.7003 28.3077 20.5836 27.7778C19.5336 27.282 18.667 26.4615 18.067 25.453C17.4503 24.4103 17.1503 23.1111 17.1503 21.5556C17.1336 20.2906 17.4503 19.0427 18.067 17.9487C18.7003 16.8376 19.617 15.9145 20.717 15.2991C21.8836 14.6325 23.2836 14.3077 24.9336 14.3077C25.017 14.3077 25.1336 14.3077 25.2836 14.3248C25.4336 14.3419 25.6003 14.3419 25.8003 14.359V8.95726C25.8003 8.8376 25.8503 8.76923 25.967 8.76923H29.3503C29.4336 8.75213 29.5003 8.82051 29.517 8.88889V8.92307V25.1966C29.517 25.5043 29.5336 25.8462 29.5503 26.2222C29.5836 26.5812 29.6003 26.9231 29.617 27.2137C29.617 27.3333 29.567 27.4359 29.4503 27.4872C28.5836 27.8632 27.6669 28.1368 26.7336 28.3077C25.9003 28.4615 25.0336 28.547 24.167 28.547ZM25.8003 25.1282V17.6068C25.6503 17.5726 25.5003 17.5385 25.3503 17.5214C25.167 17.5043 24.9836 17.4872 24.8003 17.4872C24.1503 17.4872 23.5003 17.6239 22.917 17.9316C22.3503 18.2222 21.867 18.6496 21.5003 19.1966C21.1336 19.7436 20.9503 20.4786 20.9503 21.3675C20.9336 21.9658 21.0336 22.5641 21.2336 23.1282C21.4003 23.5897 21.6503 24 21.9836 24.3419C22.3003 24.6496 22.6836 24.8889 23.1169 25.0256C23.5669 25.1795 24.0336 25.2479 24.5003 25.2479C24.7503 25.2479 24.9836 25.2308 25.2003 25.2137C25.4169 25.2308 25.617 25.1966 25.8003 25.1282Z" fill="#FF3366"/>
</svg>
