<svg width="40" height="40" viewBox="0 0 40 40" fill="none" xmlns="http://www.w3.org/2000/svg">
<path d="M40 0H0V40H40V0Z" fill="#F7DF1E"/>
<path d="M26.996 31.2551C27.8064 32.566 28.8609 33.5297 30.7258 33.5297C32.2924 33.5297 33.2932 32.754 33.2932 31.6821C33.2932 30.3977 32.265 29.9428 30.5406 29.1956L29.5953 28.7938C26.867 27.6423 25.0544 26.1997 25.0544 23.15C25.0544 20.3408 27.215 18.2022 30.5917 18.2022C32.9956 18.2022 34.7239 19.0311 35.9693 21.2013L33.025 23.0741C32.3767 21.9226 31.6774 21.4689 30.5917 21.4689C29.4842 21.4689 28.7823 22.1649 28.7823 23.0741C28.7823 24.1978 29.4849 24.6527 31.1071 25.3487L32.0523 25.7498C35.2648 27.1146 37.0786 28.5059 37.0786 31.6341C37.0786 35.0064 34.4045 36.8539 30.8133 36.8539C27.3019 36.8539 25.0333 35.1962 23.9233 33.0235L26.996 31.2551ZM13.6395 31.5796C14.2335 32.6236 14.7738 33.5063 16.0728 33.5063C17.315 33.5063 18.0987 33.0248 18.0987 31.1526V18.4161H21.8796V31.2032C21.8796 35.0817 19.5842 36.847 16.2338 36.847C13.2065 36.847 11.4533 35.2949 10.5618 33.4256L13.6395 31.5796Z" fill="black"/>
</svg>
