<svg width="40" height="40" viewBox="0 0 40 40" fill="none" xmlns="http://www.w3.org/2000/svg">
<circle cx="20" cy="20" r="20" fill="#fff"/>
<path fill-rule="evenodd" clip-rule="evenodd" d="M18.4775 0.0325376C15.5406 0.351413 13.1966 1.03347 10.8002 2.26681C-1.01325 8.34669 -3.67049 24.155 5.49782 33.8122C9.3338 37.8527 14.3646 40 19.9951 40C25.0235 40 29.6792 38.2513 33.2836 35.0089L34.2529 34.1372L29.802 34.0478C24.7489 33.9464 24.3479 33.8508 23.4372 32.5294C23.1662 32.1364 21.9314 29.0414 20.693 25.6517C19.4546 22.262 18.3846 19.4276 18.315 19.353C18.2456 19.2785 17.4035 21.1848 16.4439 23.5891C15.4842 25.9934 14.4596 28.2913 14.1669 28.6956C13.3351 29.8444 11.9095 30.2683 10.9739 29.645C9.56376 28.7056 9.62215 28.4105 12.7647 20.6045C14.238 16.9449 15.5383 13.4969 15.6542 12.9424C15.8393 12.0578 15.827 11.8759 15.5547 11.4601C15.1202 10.7966 14.2176 10.29 13.4687 10.2892C12.5781 10.2882 11.0949 11.0785 10.3476 11.9519C9.19311 13.3015 8.91566 15.3766 9.7482 16.4356C9.9387 16.678 10.5304 17.0826 11.0628 17.3347C12.1669 17.8574 12.5859 18.3504 12.5849 19.1265C12.5826 21.014 10.2078 21.9583 8.02277 20.9402C5.7019 19.8589 4.40515 16.9672 4.87775 13.9264C5.17395 12.0201 5.94596 10.5131 7.42376 8.95639C9.93227 6.31411 13.2885 5.36266 16.4651 6.39343C17.4842 6.72391 17.8576 6.96937 18.843 7.95654C20.1952 9.311 20.4414 9.92642 20.4414 11.9531C20.4414 12.9751 20.3127 13.6947 19.9181 14.88L19.395 16.4517L20.1413 15.6363C21.9207 13.6927 27.809 7.55638 28.3557 7.07619C29.5983 5.98452 30.7169 5.88537 31.6182 6.78715C32.3172 7.48653 32.422 8.314 31.9328 9.27027C31.6528 9.81709 28.41 13.3612 24.7075 17.1662L22.9694 18.9526L24.7581 23.8653C25.9266 27.0751 26.6967 28.9328 26.9795 29.2245L27.4121 29.6711L32.465 29.7235L37.5179 29.7758L38.1664 28.3837C41.5957 21.0217 40.1277 12.1727 34.4924 6.23676C31.6603 3.2538 28.0025 1.23104 23.923 0.392322C22.6041 0.121144 19.5316 -0.0817929 18.4775 0.0325376Z" fill="#E42E15"/>
</svg>
