<svg width="40" height="42" viewBox="0 0 40 42" fill="none" xmlns="http://www.w3.org/2000/svg">
<path d="M39.8941 24.7032C39.6538 23.9751 39.024 23.468 38.2095 23.3462C37.8254 23.2889 37.3856 23.3133 36.8652 23.4206C35.9581 23.6078 35.285 23.679 34.7939 23.6929C36.6477 20.5627 38.1553 16.9931 39.0231 13.633C40.4264 8.19995 39.6765 5.72482 38.8003 4.60519C36.4812 1.64197 33.0976 0.0499756 29.0155 0.00117501C26.8381 -0.0254014 24.9264 0.404544 23.9292 0.713645C23.0007 0.549927 22.0023 0.458437 20.9547 0.441491C18.9913 0.410192 17.2563 0.838193 15.7739 1.7179C14.953 1.44047 13.6359 1.04923 12.1148 0.799486C8.53705 0.212119 5.65365 0.669845 3.54457 2.15979C0.990647 3.96384 -0.193346 7.09819 0.0256545 11.4759C0.095105 12.8658 0.872673 17.0946 2.09685 21.1052C2.80043 23.4104 3.55069 25.3247 4.32677 26.7954C5.42733 28.8808 6.60493 30.109 7.92699 30.55C8.66808 30.7969 10.0144 30.9697 11.4305 29.7905C11.61 30.0078 11.8494 30.2238 12.1673 30.4244C12.5708 30.679 13.0644 30.8869 13.5572 31.0102C15.3336 31.4543 16.9974 31.3432 18.4169 30.7208C18.4256 30.9732 18.4324 31.2145 18.4381 31.4227C18.4475 31.7606 18.4568 32.0919 18.4692 32.4016C18.5533 34.4964 18.6958 36.1252 19.1181 37.2647C19.1412 37.3275 19.1724 37.423 19.2054 37.5242C19.416 38.1692 19.7683 39.249 20.6644 40.0947C21.5925 40.9706 22.715 41.2393 23.7431 41.2392C24.2587 41.2392 24.7507 41.1716 25.1821 41.0791C26.7203 40.7496 28.4671 40.2473 29.7308 38.4481C30.9254 36.7471 31.5062 34.1852 31.6113 30.1484C31.6249 30.0343 31.6375 29.9253 31.6496 29.8214C31.6578 29.7513 31.6661 29.6796 31.6745 29.6081L31.956 29.6328L32.0285 29.6378C33.5952 29.7091 35.5107 29.3769 36.6871 28.8305C37.6167 28.399 40.5955 26.8265 39.8941 24.7032Z" fill="black"/>
<path d="M37.2155 25.1162C32.5575 26.077 32.2373 24.4999 32.2373 24.4999C37.1554 17.2022 39.2114 7.93892 37.4371 5.67178C32.5969 -0.51256 24.2182 2.41223 24.0784 2.48817L24.0334 2.49622C23.1131 2.30519 22.0832 2.19138 20.9257 2.17249C18.818 2.13795 17.2193 2.72504 16.0061 3.64503C16.0061 3.64503 1.05932 -2.51246 1.75447 11.3892C1.90236 14.3467 5.99336 33.7668 10.873 27.901C12.6564 25.7561 14.3797 23.9425 14.3797 23.9425C15.2356 24.5111 16.2602 24.8011 17.3344 24.697L17.4178 24.6261C17.3919 24.8924 17.4037 25.1529 17.4512 25.4613C16.1942 26.8658 16.5635 27.1124 14.0506 27.6296C11.5079 28.1537 13.0017 29.0866 13.9769 29.3304C15.1593 29.6261 17.8946 30.0449 19.7428 27.4577L19.6691 27.7529C20.1616 28.1474 20.5075 30.3189 20.4495 32.2874C20.3916 34.256 20.3529 35.6076 20.741 36.6632C21.129 37.7188 21.5158 40.0941 24.8193 39.3862C27.5796 38.7947 29.01 37.2618 29.209 34.7048C29.3502 32.8869 29.6698 33.1557 29.69 31.5304L29.9463 30.761C30.2419 28.2968 29.9932 27.5018 31.6939 27.8716L32.1071 27.9079C33.3588 27.9648 34.997 27.7066 35.9585 27.2597C38.0289 26.2989 39.2567 24.6946 37.2154 25.1162H37.2155Z" fill="#336791"/>
<path d="M16.8809 12.7118C16.4612 12.6534 16.081 12.7075 15.8887 12.853C15.7804 12.935 15.747 13.0299 15.738 13.0953C15.7138 13.2683 15.8351 13.4597 15.9096 13.5584C16.1203 13.8377 16.4283 14.0298 16.7332 14.0721C16.7773 14.0782 16.8212 14.0812 16.8649 14.0812C17.3733 14.0812 17.8354 13.6854 17.8761 13.3933C17.9271 13.0274 17.3959 12.7835 16.8809 12.7118Z" fill="white"/>
<path d="M30.7869 12.7234C30.7469 12.4366 30.2364 12.3549 29.7521 12.4222C29.2686 12.4896 28.7995 12.7079 28.8387 12.9953C28.8702 13.2188 29.2737 13.6004 29.7515 13.6003C29.7918 13.6003 29.8325 13.5977 29.8735 13.5919C30.1924 13.5477 30.4264 13.3452 30.5376 13.2285C30.7069 13.0507 30.8048 12.8523 30.7869 12.7234Z" fill="white"/>
<path d="M38.7658 25.007C38.5882 24.4699 38.0166 24.297 37.0668 24.4932C34.2467 25.0752 33.2368 24.672 32.9051 24.4278C35.0972 21.0885 36.9004 17.0521 37.8731 13.2859C38.334 11.502 38.5886 9.84526 38.6093 8.49496C38.6323 7.01261 38.3799 5.92353 37.8593 5.25819C35.7601 2.57592 32.6794 1.13719 28.95 1.09764C26.3863 1.06885 24.2202 1.72501 23.8002 1.90947C22.9159 1.68955 21.9518 1.55454 20.9024 1.53731C18.9777 1.5062 17.3141 1.96698 15.9367 2.90614C15.3384 2.68352 13.7921 2.15274 11.9013 1.84817C8.63215 1.32174 6.03443 1.72057 4.18056 3.03393C1.96851 4.6011 0.947313 7.40246 1.1452 11.36C1.21178 12.6916 1.97037 16.7876 3.16769 20.7104C4.74366 25.8733 6.45668 28.7962 8.25925 29.3973C8.47019 29.4677 8.71355 29.517 8.98172 29.517C9.63928 29.517 10.4454 29.2206 11.2841 28.2122C12.6773 26.5362 13.9781 25.1317 14.4576 24.6214C15.1662 25.0018 15.9445 25.2141 16.7407 25.2354C16.7421 25.2562 16.7443 25.2771 16.7461 25.2978C16.5864 25.4873 16.4553 25.6533 16.3437 25.7951C15.792 26.4953 15.6772 26.6411 13.9015 27.0068C13.3965 27.1109 12.0548 27.3874 12.0352 28.3278C12.0138 29.3552 13.6209 29.7867 13.8041 29.8325C14.4422 29.9922 15.0569 30.071 15.6431 30.071C17.069 30.0709 18.3237 29.6024 19.3264 28.6957C19.2955 32.3585 19.4483 35.9678 19.888 37.0676C20.2482 37.9677 21.1282 40.1679 23.9078 40.1677C24.3155 40.1677 24.7645 40.1203 25.2583 40.0145C28.1591 39.3925 29.4188 38.1104 29.9061 35.2839C30.1669 33.7733 30.6144 30.1659 30.8248 28.231C31.269 28.3696 31.8409 28.433 32.4591 28.4329C33.7485 28.4329 35.2362 28.159 36.1693 27.7259C37.2173 27.2392 39.1088 26.0446 38.7658 25.007ZM31.8577 11.9317C31.8481 12.503 31.7695 13.0216 31.6861 13.5629C31.5965 14.1451 31.5037 14.747 31.4804 15.4777C31.4573 16.1888 31.5461 16.9281 31.632 17.643C31.8056 19.087 31.9836 20.5737 31.2942 22.0407C31.1871 21.8504 31.0837 21.6428 30.9888 21.4128C30.9032 21.2051 30.7171 20.8715 30.4596 20.4097C29.4573 18.6123 27.1103 14.4033 28.3117 12.6857C28.6696 12.1744 29.5778 11.6488 31.8577 11.9317ZM29.0942 2.25441C32.4356 2.32822 35.0787 3.57823 36.9502 5.96955C38.3855 7.80379 36.805 16.1499 32.2295 23.3501C32.1843 23.2926 32.1383 23.2347 32.0907 23.1752C32.0717 23.1514 32.0524 23.1273 32.0328 23.1028C33.2151 21.1501 32.9839 19.2182 32.7782 17.5053C32.6936 16.8024 32.6138 16.1384 32.6341 15.5148C32.6551 14.8537 32.7425 14.2869 32.827 13.7387C32.9309 13.063 33.0366 12.3641 33.0074 11.54C33.0292 11.4536 33.038 11.3515 33.0266 11.2303C32.9522 10.44 32.05 8.07529 30.2112 5.93464C29.2054 4.76398 27.7385 3.45378 25.7358 2.57009C26.5972 2.39155 27.7753 2.22506 29.0942 2.25441ZM10.3966 27.4742C9.4725 28.5852 8.8343 28.3723 8.62447 28.3024C7.25703 27.8463 5.6705 24.9563 4.27168 20.3734C3.06129 16.408 2.35392 12.4205 2.29799 11.3023C2.12121 7.7661 2.97842 5.30153 4.8459 3.97716C7.88505 1.82187 12.8818 3.1119 14.8896 3.76621C14.8607 3.79464 14.8307 3.82131 14.802 3.8502C11.5074 7.17762 11.5856 12.8626 11.5936 13.21C11.5933 13.3441 11.6045 13.5339 11.62 13.7951C11.6767 14.7512 11.7822 16.5308 11.5004 18.5461C11.2384 20.4189 11.8157 22.2519 13.0839 23.5752C13.2152 23.7121 13.3523 23.8407 13.4939 23.9618C12.9293 24.5664 11.7024 25.9032 10.3966 27.4742ZM13.9173 22.7765C12.8951 21.71 12.4309 20.2265 12.6435 18.7059C12.9411 16.577 12.8312 14.7228 12.7722 13.7267C12.764 13.5873 12.7567 13.4652 12.7523 13.3688C13.2337 12.9421 15.4641 11.7469 17.0547 12.1114C17.7807 12.2777 18.2229 12.7719 18.4068 13.6222C19.3586 18.0238 18.5328 19.8584 17.8694 21.3326C17.7326 21.6363 17.6034 21.9234 17.493 22.2204L17.4076 22.45C17.1911 23.0305 16.9896 23.5702 16.8648 24.0827C15.7782 24.0794 14.7211 23.6153 13.9173 22.7765ZM14.0841 28.7127C13.7669 28.6334 13.4815 28.4957 13.314 28.3815C13.4539 28.3157 13.7028 28.2262 14.1344 28.1373C16.2234 27.7072 16.5459 27.4037 17.2504 26.5092C17.412 26.3042 17.5951 26.0717 17.8486 25.7885L17.8489 25.7881C18.2266 25.3653 18.3993 25.437 18.7126 25.5669C18.9665 25.672 19.2137 25.9902 19.314 26.3404C19.3614 26.5058 19.4148 26.8198 19.2404 27.064C17.7687 29.1245 15.6242 29.0981 14.0841 28.7127ZM25.0164 38.8859C22.4609 39.4334 21.5561 38.1295 20.9598 36.6389C20.575 35.6765 20.3859 31.337 20.52 26.5448C20.5218 26.481 20.5127 26.4194 20.4951 26.3615C20.4799 26.2498 20.4563 26.1367 20.4237 26.0229C20.2241 25.3256 19.7378 24.7423 19.1545 24.5005C18.9227 24.4045 18.4972 24.2283 17.9859 24.359C18.095 23.9098 18.2841 23.4027 18.489 22.8533L18.5751 22.6222C18.6719 22.3617 18.7933 22.0919 18.9219 21.8063C19.6162 20.2638 20.5671 18.1511 19.5351 13.3782C19.1484 11.5905 17.8576 10.7176 15.9007 10.9203C14.7274 11.0417 13.6542 11.515 13.1188 11.7865C13.0037 11.8448 12.8985 11.9011 12.8001 11.956C12.9495 10.1547 13.5141 6.78861 15.6257 4.65888C16.9552 3.31802 18.7259 2.65584 20.8833 2.69149C25.1342 2.76112 27.86 4.94261 29.3984 6.76046C30.724 8.32698 31.4418 9.9049 31.7283 10.7559C29.574 10.5369 28.1088 10.9622 27.3659 12.0241C25.75 14.3339 28.25 18.8173 29.4515 20.9719C29.6718 21.3668 29.862 21.7081 29.9218 21.8531C30.313 22.8013 30.8196 23.4343 31.1894 23.8965C31.3028 24.0381 31.4128 24.1754 31.4964 24.2953C30.8439 24.4835 29.6719 24.9181 29.7786 27.0906C29.6925 28.1808 29.0799 33.2845 28.7687 35.0878C28.358 37.47 27.4813 38.3574 25.0164 38.8859ZM35.6832 26.679C35.016 26.9887 33.8995 27.221 32.8387 27.2709C31.6671 27.3258 31.0708 27.1396 30.9305 27.0252C30.8646 25.6714 31.3686 25.5299 31.9019 25.3801C31.9857 25.3565 32.0674 25.3337 32.1463 25.3061C32.1954 25.346 32.2491 25.3856 32.3079 25.4244C33.2496 26.0459 34.9292 26.113 37.3002 25.6236C37.3089 25.6217 37.3176 25.6201 37.3262 25.6183C37.0065 25.9173 36.4592 26.3186 35.6832 26.679Z" fill="white"/>
</svg>
