<svg width="67" height="40" viewBox="0 0 67 40" fill="none" xmlns="http://www.w3.org/2000/svg">
<path d="M2.06861 40C2.06861 40 2.95486 31.495 9.15651 21.4352C15.3602 11.3755 25.9364 3.76322 34.5322 3.01343C51.6356 1.34634 67 16.2623 67 16.2623C67 16.2623 66.496 16.6055 65.9625 17.0387C49.1847 4.97063 38.9361 10.6584 35.7125 12.1824C20.9424 20.2012 25.4009 40 25.4009 40H2.07281H2.06861ZM50.6905 4.62332C49.7454 4.25149 48.8004 3.90827 47.8259 3.5916L47.9435 1.69161C49.8022 2.21053 50.5414 2.5558 50.806 2.69881L50.6884 4.62536L50.6905 4.62332ZM47.8826 10.7196C48.8277 10.7769 49.8043 10.8913 50.8081 11.0935L50.6905 12.875C49.716 12.6707 48.7416 12.5584 47.7671 12.5277L47.8847 10.7196H47.8826ZM36.9557 1.74881C36.101 1.74881 35.2441 1.77946 34.3873 1.86731L33.8245 0.171612C34.801 0.0572042 35.7461 0 36.6596 0L37.2519 1.7529H36.9578L36.9557 1.74881ZM38.3754 12.3275C39.1105 12.0129 39.9715 11.6942 40.9733 11.4081L41.6243 13.3081C40.7633 13.5635 39.9085 13.9088 39.0517 14.3092L38.3733 12.3275H38.3754ZM24.9641 4.76837C24.1954 5.14429 23.4562 5.57536 22.6897 6.03504L21.3309 4.02268C22.1289 3.563 22.8955 3.16462 23.6347 2.7887L24.9641 4.76837ZM31.0187 17.7006C31.5479 17.0407 32.1696 16.3808 32.8458 15.7761L34.1773 17.7312C33.5263 18.3911 32.9382 19.0531 32.4342 19.7742L31.0187 17.7006ZM26.7345 26.9554C26.9697 25.9217 27.2385 24.8572 27.6207 23.7949L29.746 25.4334C29.452 26.5529 29.242 27.6745 29.1265 28.7941L26.7345 26.9554ZM13.7978 13.3061C13.0837 14.0211 12.4075 14.7975 11.7859 15.5738L9.51353 13.6779C10.1919 12.9588 10.929 12.2396 11.6976 11.5225L13.7978 13.304V13.3061ZM4.87227 26.1484C4.40184 27.2108 3.78021 28.6205 3.39799 29.597L0 28.3916C0.294016 27.6153 0.915651 26.177 1.47638 24.939L4.87437 26.1484H4.87227ZM26.2935 34.253L29.4814 35.3726C29.6578 36.7271 29.9225 37.9876 30.1892 39.1113L26.6442 37.8753C26.4972 37.0131 26.3502 35.7771 26.2914 34.2551L26.2935 34.253Z" 
fill="#ee0000"/>
</svg>
