<svg width="40" height="40" viewBox="0 0 40 40" fill="none" xmlns="http://www.w3.org/2000/svg">
<rect width="40" height="40" fill="transparent"/>
<path d="M1.23499 32.2424C1.23499 32.2424 1.7641 27.0879 5.46657 20.991C9.1703 14.8942 15.4844 10.2807 20.6162 9.82632C30.8272 8.81596 40 17.856 40 17.856C40 17.856 39.6991 18.064 39.3806 18.3265C29.364 11.0125 23.2455 14.4596 21.3209 15.3833C12.5029 20.2432 15.1647 32.2424 15.1647 32.2424H1.2375H1.23499ZM30.263 10.802C29.6988 10.5767 29.1346 10.3686 28.5528 10.1767L28.623 9.02522C29.7326 9.33972 30.174 9.54897 30.3319 9.63564L30.2617 10.8033L30.263 10.802ZM28.5867 14.4968C29.1509 14.5314 29.7339 14.6008 30.3332 14.7233L30.263 15.803C29.6812 15.6792 29.0995 15.6111 28.5177 15.5925L28.5879 14.4968H28.5867ZM22.0631 9.05989C21.5528 9.05989 21.0413 9.07846 20.5297 9.1317L20.1937 8.10401C20.7767 8.03467 21.3409 8 21.8863 8L22.2399 9.06236H22.0644L22.0631 9.05989ZM22.9107 15.4712C23.3495 15.2805 23.8636 15.0874 24.4617 14.914L24.8503 16.0655C24.3363 16.2203 23.826 16.4296 23.3144 16.6722L22.9094 15.4712H22.9107ZM14.9039 10.8899C14.445 11.1177 14.0037 11.379 13.5461 11.6576L12.7349 10.438C13.2113 10.1594 13.6689 9.91795 14.1103 9.69012L14.9039 10.8899ZM18.5186 18.7276C18.8346 18.3277 19.2057 17.9278 19.6094 17.5613L20.4044 18.7462C20.0157 19.1461 19.6646 19.5473 19.3637 19.9844L18.5186 18.7276ZM15.9609 24.3366C16.1013 23.7101 16.2618 23.065 16.49 22.4211L17.7588 23.4142C17.5833 24.0927 17.4579 24.7725 17.389 25.451L15.9609 24.3366ZM8.23747 16.0643C7.81118 16.4977 7.40745 16.9682 7.03633 17.4387L5.67972 16.2896C6.08469 15.8538 6.52478 15.418 6.98367 14.9834L8.23747 16.0631V16.0643ZM2.90882 23.8475C2.62797 24.4914 2.25684 25.3457 2.02865 25.9376L0 25.2071C0.175532 24.7365 0.546657 23.8649 0.881422 23.1145L2.91007 23.8475H2.90882ZM15.6976 28.7594L17.6009 29.4379C17.7062 30.2589 17.8642 31.0228 18.0234 31.7038L15.907 30.9547C15.8192 30.4322 15.7314 29.6831 15.6963 28.7606L15.6976 28.7594Z" fill="#CC0000"/>
</svg>
