<svg width="40" height="40" viewBox="0 0 40 40" fill="none" xmlns="http://www.w3.org/2000/svg">
<path 
  fill-rule="evenodd" clip-rule="evenodd" d="M0 3.66667C0 2.69421 0.386308 1.76158 1.07394 1.07394C1.76158 0.386308 2.69421 0 3.66667 0L18 0C18.9725 0 19.9051 0.386308 20.5927 1.07394C21.2804 1.76158 21.6667 2.69421 21.6667 3.66667V6.5C21.6667 6.98623 21.4735 7.45255 21.1297 7.79636C20.7859 8.14018 20.3196 8.33333 19.8333 8.33333H1.83333C1.3471 8.33333 0.880788 8.14018 0.536971 7.79636C0.193154 7.45255 0 6.98623 0 6.5L0 3.66667ZM1.83333 13.3333C1.3471 13.3333 0.880788 13.5265 0.536971 13.8703C0.193154 14.2141 0 14.6804 0 15.1667L0 24.6667C0 25.6391 0.386308 26.5718 1.07394 27.2594C1.76158 27.947 2.69421 28.3333 3.66667 28.3333H38.1667C38.6529 28.3333 39.1192 28.1402 39.463 27.7964C39.8068 27.4525 40 26.9862 40 26.5V17C40 16.0275 39.6137 15.0949 38.9261 14.4073C38.2384 13.7196 37.3058 13.3333 36.3333 13.3333H1.83333ZM20.1667 33.3333C19.9259 33.3333 19.6875 33.3808 19.4651 33.4729C19.2427 33.565 19.0405 33.7001 18.8703 33.8703C18.7001 34.0405 18.565 34.2427 18.4729 34.4651C18.3808 34.6875 18.3333 34.9259 18.3333 35.1667V36.3333C18.3333 37.3058 18.7196 38.2384 19.4073 38.9261C20.0949 39.6137 21.0275 40 22 40H36.3333C37.3058 40 38.2384 39.6137 38.9261 38.9261C39.6137 38.2384 40 37.3058 40 36.3333V35.1667C40 34.9259 39.9526 34.6875 39.8604 34.4651C39.7683 34.2427 39.6333 34.0405 39.463 33.8703C39.2928 33.7001 39.0907 33.565 38.8683 33.4729C38.6458 33.3808 38.4074 33.3333 38.1667 33.3333H20.1667Z" 
  fill="#aaaaaa"
/>
</svg>
