<svg width="66" height="40" viewBox="0 0 66 40" fill="none" xmlns="http://www.w3.org/2000/svg">
<path d="M31.9898 0.0130716C20.2785 0.384045 16.7977 8.72188 16 13.2389C17.0394 11.5646 20.3147 7.89082 25.1371 7.89082C30.7571 7.89082 35.0355 14.1424 37.6461 16.0937C40.8178 18.4645 47.1909 21.5947 55.5576 19.0569C62.2292 17.0333 65.3232 9.97457 66 6.62598C62.773 10.9985 57.8782 13.6248 51.8231 10.5287C47.6534 8.39665 44.5352 -0.384354 31.9898 0.0130716Z" fill="#07B6D5"/>
<path d="M15.9898 20.0131C4.27846 20.384 0.79768 28.7219 0 33.2389C1.0394 31.5646 4.31472 27.8908 9.13706 27.8908C14.7571 27.8908 19.0355 34.1424 21.6461 36.0937C24.8178 38.4645 31.1909 41.5947 39.5577 39.0569C46.2292 37.0333 49.3232 29.9746 50 26.626C46.773 30.9985 41.8782 33.6248 35.8231 30.5287C31.6534 28.3967 28.5352 19.6156 15.9898 20.0131Z" fill="#07B6D5"/>
</svg>
