<svg width="40" height="40" viewBox="0 0 40 40" fill="none" xmlns="http://www.w3.org/2000/svg">
<path d="M28.2812 0H11.7188C5.24666 0 0 5.24666 0 11.7188V28.2812C0 34.7533 5.24666 40 11.7188 40H28.2812C34.7533 40 40 34.7533 40 28.2812V11.7188C40 5.24666 34.7533 0 28.2812 0Z" fill="#398CCB"/>
<path fill-rule="evenodd" clip-rule="evenodd" d="M19.9569 5.85938L25.5098 9.06313V10.8247L32.231 14.7061V21.3456L34.0339 22.3864V28.7975L28.4846 32.0012L26.0209 30.5764L20.0308 34.0348L14.0766 30.5964L11.6475 32.0012L6.09814 28.792V22.3864L7.83074 21.3862V14.7061L14.4076 10.9092L14.4113 10.9091V9.06313L19.9569 5.85938ZM25.5098 12.4905V15.4705L19.9605 18.6743L14.4113 15.4705V12.5731L14.4076 12.5733L9.273 15.5391V20.5534L11.6475 19.1827L17.1967 22.3864V28.792L15.5178 29.7629L20.0308 32.369L24.5797 29.7431L22.9353 28.792V22.3864L28.4846 19.1827L30.7886 20.5129V15.5391L25.5098 12.4905ZM24.3776 27.9663V24.0559L27.7634 26.0102V29.9207L24.3776 27.9663ZM32.5915 24.0505L29.2057 26.0048V29.9207L32.5915 27.9609V24.0505ZM7.54046 27.9609V24.0505L10.9263 26.0048V29.9152L7.54046 27.9609ZM15.7544 24.0505L12.3686 26.0048V29.9152L15.7544 27.9609V24.0505ZM25.0988 22.8065L28.4846 20.8522L31.8703 22.8065L28.4846 24.7627L25.0988 22.8065ZM11.6475 20.8467L8.2616 22.8065L11.6475 24.7572L15.0332 22.8065L11.6475 20.8467ZM15.8536 14.6377V10.7272L19.2357 12.6833V16.592L15.8536 14.6377ZM24.0639 10.7272L20.6817 12.6833V16.5902L24.0639 14.6377V10.7272ZM16.5747 9.47953L19.9569 7.52524L23.3428 9.47953L19.9569 11.4339L16.5747 9.47953Z" fill="white"/>
</svg>
