<svg width="40" height="40" viewBox="0 0 40 40" fill="none" xmlns="http://www.w3.org/2000/svg">
<path 
  d="M9.99994 2.67949C16.188 -0.893164 23.8119 -0.893164 29.9999 2.67949C36.1879 6.25214 40 12.8547 40 20C40 27.1453 36.1879 33.7479 29.9999 37.3205C23.8119 40.8932 16.188 40.8932 9.99994 37.3205C3.81196 33.7479 0 27.1453 0 20C0 12.8547 3.81196 6.25214 9.99994 2.67949Z" 
  fill="white" fill-opacity="0.2"/>
<path d="M19.9339 11.6723C15.3785 11.6723 11.6724 15.3785 11.6724 19.9339C11.6724 24.4892 15.3785 28.1954 19.9339 28.1954C24.4893 28.1954 28.1954 24.4892 28.1954 19.9339C28.1954 15.3785 24.4893 11.6723 19.9339 11.6723ZM19.9339 24.2092C17.5724 24.2092 15.6585 22.2954 15.6585 19.9339C15.6585 17.5723 17.5724 15.6585 19.9339 15.6585C22.2954 15.6585 24.2093 17.5723 24.2093 19.9339C24.2093 22.2954 22.2954 24.2092 19.9339 24.2092Z" fill="white"/>
<path fill-rule="evenodd" clip-rule="evenodd" d="M20.6259 10.3154V7.23076C27.3305 7.58922 32.6566 13.14 32.6566 19.9338C32.6566 26.7277 27.3305 32.2769 20.6259 32.6369V29.5523C25.6228 29.1954 29.5797 25.02 29.5797 19.9338C29.5797 14.8477 25.6228 10.6723 20.6259 10.3154ZM12.6474 26.2415C11.3228 24.7123 10.4689 22.7646 10.3166 20.6261H7.23047C7.39047 23.6185 8.58739 26.3338 10.4628 28.4246L12.6459 26.2415H12.6474ZM19.2413 32.6369V29.5523C17.1013 29.4 15.1536 28.5477 13.6244 27.2215L11.4413 29.4046C13.5336 31.2815 16.249 32.4769 19.2398 32.6369H19.2413Z" fill="url(#paint0_linear_76_295)"/>
<defs>
<linearGradient id="paint0_linear_76_295" x1="21.1244" y1="9.01709" x2="8.61982" y2="21.5217" gradientUnits="userSpaceOnUse">
<stop stop-color="#0096FF"/>
<stop offset="1" stop-color="#FF1E56"/>
</linearGradient>
</defs>
</svg>
